<mxfile host="app.diagrams.net" modified="2020-09-09T14:53:28.854Z" agent="5.0 (Macintosh; Intel Mac OS X 10_15_6) AppleWebKit/605.1.15 (KHTML, like Gecko) Version/13.1.2 Safari/605.1.15" etag="Uen-fjayqDij2zlXx1t7" version="13.6.9" type="github">
  <diagram id="prtHgNgQTEPvFCAcTncT" name="Page-1">
    <mxGraphModel dx="1826" dy="817" grid="1" gridSize="10" guides="1" tooltips="1" connect="1" arrows="1" fold="1" page="0" pageScale="1" pageWidth="827" pageHeight="1169" background="#F0F0F0" math="0" shadow="0">
      <root>
        <mxCell id="0" />
        <mxCell id="1" parent="0" />
        <mxCell id="xV2-DqPg_27y4KBebF6c-39" value="" style="rounded=1;whiteSpace=wrap;html=1;shadow=1;glass=0;sketch=1;fillColor=#d5e8d4;strokeColor=#82b366;" vertex="1" parent="1">
          <mxGeometry x="-200" y="80" width="1140" height="550" as="geometry" />
        </mxCell>
        <mxCell id="Zh8z0Y2bod89Jc97wrA--2" value="" style="endArrow=none;dashed=1;html=1;dashPattern=1 3;strokeWidth=2;" parent="1" edge="1">
          <mxGeometry width="50" height="50" relative="1" as="geometry">
            <mxPoint x="130" y="630" as="sourcePoint" />
            <mxPoint x="130" y="80" as="targetPoint" />
          </mxGeometry>
        </mxCell>
        <mxCell id="xV2-DqPg_27y4KBebF6c-36" value="" style="endArrow=none;dashed=1;html=1;dashPattern=1 3;strokeWidth=2;" edge="1" parent="1">
          <mxGeometry width="50" height="50" relative="1" as="geometry">
            <mxPoint x="550" y="630" as="sourcePoint" />
            <mxPoint x="550" y="80" as="targetPoint" />
          </mxGeometry>
        </mxCell>
        <mxCell id="xV2-DqPg_27y4KBebF6c-35" value="" style="rounded=0;whiteSpace=wrap;html=1;fillColor=#fff2cc;strokeColor=#d6b656;" vertex="1" parent="1">
          <mxGeometry x="705" y="257.5" width="120" height="67" as="geometry" />
        </mxCell>
        <mxCell id="xV2-DqPg_27y4KBebF6c-33" value="" style="rounded=0;whiteSpace=wrap;html=1;fillColor=#fff2cc;strokeColor=#d6b656;" vertex="1" parent="1">
          <mxGeometry x="95" y="257.5" width="120" height="67" as="geometry" />
        </mxCell>
        <mxCell id="vM5lTf9RMHXCYF5sCvvl-10" value="" style="rounded=0;whiteSpace=wrap;html=1;fillColor=#fff2cc;strokeColor=#d6b656;" parent="1" vertex="1">
          <mxGeometry x="-90" y="440" width="120" height="60" as="geometry" />
        </mxCell>
        <mxCell id="vM5lTf9RMHXCYF5sCvvl-11" value="" style="rounded=0;whiteSpace=wrap;html=1;fillColor=#fff2cc;strokeColor=#d6b656;" parent="1" vertex="1">
          <mxGeometry x="-90" y="201.5" width="120" height="67" as="geometry" />
        </mxCell>
        <mxCell id="vM5lTf9RMHXCYF5sCvvl-12" value="FHIR&amp;nbsp;Server (PHI)" style="rounded=1;whiteSpace=wrap;html=1;fillColor=#e1d5e7;shadow=1;strokeColor=#9673a6;" parent="1" vertex="1">
          <mxGeometry x="20" y="180" width="90" height="390" as="geometry" />
        </mxCell>
        <mxCell id="vM5lTf9RMHXCYF5sCvvl-13" value="&lt;span style=&quot;background-color: rgb(255 , 244 , 195)&quot;&gt;REST&lt;/span&gt;" style="edgeStyle=orthogonalEdgeStyle;rounded=0;orthogonalLoop=1;jettySize=auto;html=1;exitX=1.011;exitY=0.2;exitDx=0;exitDy=0;entryX=-0.011;entryY=0.2;entryDx=0;entryDy=0;entryPerimeter=0;exitPerimeter=0;shadow=0;sketch=0;startArrow=block;startFill=1;strokeWidth=2;endArrow=block;endFill=1;strokeColor=#5C5C5C;" parent="1" source="vM5lTf9RMHXCYF5sCvvl-14" target="vM5lTf9RMHXCYF5sCvvl-12" edge="1">
          <mxGeometry relative="1" as="geometry" />
        </mxCell>
        <mxCell id="vM5lTf9RMHXCYF5sCvvl-14" value="FHIR&amp;nbsp;Server (Facility)" style="rounded=1;whiteSpace=wrap;html=1;fillColor=#ffe6cc;shadow=1;strokeColor=#d79b00;" parent="1" vertex="1">
          <mxGeometry x="-170" y="180" width="90" height="390" as="geometry" />
        </mxCell>
        <mxCell id="vM5lTf9RMHXCYF5sCvvl-15" value="&lt;h2&gt;&lt;font color=&quot;#ffffff&quot;&gt;1&lt;/font&gt;&lt;/h2&gt;" style="ellipse;whiteSpace=wrap;html=1;aspect=fixed;strokeColor=#82b366;fillColor=#C1E0BC;" parent="1" vertex="1">
          <mxGeometry x="-47" y="213" width="30" height="30" as="geometry" />
        </mxCell>
        <mxCell id="vM5lTf9RMHXCYF5sCvvl-16" value="&lt;h2&gt;&lt;font color=&quot;#ffffff&quot;&gt;2&lt;/font&gt;&lt;/h2&gt;" style="ellipse;whiteSpace=wrap;html=1;aspect=fixed;strokeColor=#82b366;fillColor=#C1E0BC;" parent="1" vertex="1">
          <mxGeometry x="-140" y="320" width="30" height="30" as="geometry" />
        </mxCell>
        <mxCell id="vM5lTf9RMHXCYF5sCvvl-17" value="&lt;h2&gt;&lt;font color=&quot;#ffffff&quot;&gt;3&lt;/font&gt;&lt;/h2&gt;" style="ellipse;whiteSpace=wrap;html=1;aspect=fixed;strokeColor=#82b366;fillColor=#C1E0BC;" parent="1" vertex="1">
          <mxGeometry x="-47" y="447" width="30" height="30" as="geometry" />
        </mxCell>
        <mxCell id="vM5lTf9RMHXCYF5sCvvl-18" value="&lt;span style=&quot;background-color: rgb(255 , 244 , 195)&quot;&gt;REST&lt;/span&gt;" style="edgeStyle=orthogonalEdgeStyle;rounded=0;orthogonalLoop=1;jettySize=auto;html=1;exitX=1.011;exitY=0.2;exitDx=0;exitDy=0;entryX=-0.011;entryY=0.2;entryDx=0;entryDy=0;entryPerimeter=0;exitPerimeter=0;shadow=0;sketch=0;startArrow=block;startFill=1;strokeWidth=2;endArrow=block;endFill=1;strokeColor=#5C5C5C;" parent="1" edge="1">
          <mxGeometry relative="1" as="geometry">
            <mxPoint x="-78.00999999999999" y="490" as="sourcePoint" />
            <mxPoint x="20.00999999999999" y="490" as="targetPoint" />
            <Array as="points">
              <mxPoint x="3" y="490" />
              <mxPoint x="3" y="490" />
            </Array>
          </mxGeometry>
        </mxCell>
        <mxCell id="xV2-DqPg_27y4KBebF6c-19" value="" style="rounded=0;whiteSpace=wrap;html=1;shadow=1;strokeColor=#6c8ebf;fillColor=#CDDAED;" vertex="1" parent="1">
          <mxGeometry x="190" y="201.5" width="530" height="220" as="geometry" />
        </mxCell>
        <mxCell id="xV2-DqPg_27y4KBebF6c-20" style="edgeStyle=orthogonalEdgeStyle;rounded=0;orthogonalLoop=1;jettySize=auto;html=1;exitX=1;exitY=0.5;exitDx=0;exitDy=0;entryX=0;entryY=0.5;entryDx=0;entryDy=0;startArrow=none;startFill=0;endArrow=block;endFill=1;strokeColor=#5C5C5C;" edge="1" source="xV2-DqPg_27y4KBebF6c-21" target="xV2-DqPg_27y4KBebF6c-23" parent="1">
          <mxGeometry relative="1" as="geometry" />
        </mxCell>
        <mxCell id="xV2-DqPg_27y4KBebF6c-21" value="FHIR Inbound" style="rounded=1;whiteSpace=wrap;html=1;fillColor=#d5e8d4;strokeColor=#82b366;shadow=1;" vertex="1" parent="1">
          <mxGeometry x="215" y="281.5" width="120" height="60" as="geometry" />
        </mxCell>
        <mxCell id="xV2-DqPg_27y4KBebF6c-22" value="FHIR Inbound Service" style="text;html=1;strokeColor=none;fillColor=none;align=center;verticalAlign=middle;whiteSpace=wrap;rounded=0;shadow=1;" vertex="1" parent="1">
          <mxGeometry x="185" y="211.5" width="155" height="20" as="geometry" />
        </mxCell>
        <mxCell id="xV2-DqPg_27y4KBebF6c-23" value="FHIR Processor" style="rounded=1;whiteSpace=wrap;html=1;fillColor=#d5e8d4;strokeColor=#82b366;shadow=1;" vertex="1" parent="1">
          <mxGeometry x="400" y="281.5" width="120" height="60" as="geometry" />
        </mxCell>
        <mxCell id="xV2-DqPg_27y4KBebF6c-24" value="&lt;span style=&quot;background-color: rgb(255 , 244 , 195)&quot;&gt;REST&lt;/span&gt;" style="edgeStyle=orthogonalEdgeStyle;rounded=0;orthogonalLoop=1;jettySize=auto;html=1;startArrow=block;startFill=1;endArrow=block;endFill=1;strokeColor=#5C5C5C;entryX=0;entryY=0.5;entryDx=0;entryDy=0;strokeWidth=2;" edge="1" target="xV2-DqPg_27y4KBebF6c-21" parent="1">
          <mxGeometry relative="1" as="geometry">
            <mxPoint x="190" y="366.5" as="targetPoint" />
            <mxPoint x="109" y="311.5" as="sourcePoint" />
          </mxGeometry>
        </mxCell>
        <mxCell id="xV2-DqPg_27y4KBebF6c-25" value="" style="rounded=0;whiteSpace=wrap;html=1;shadow=1;strokeColor=#b85450;fillColor=#f8cecc;" vertex="1" parent="1">
          <mxGeometry x="179" y="439" width="360" height="122.5" as="geometry" />
        </mxCell>
        <mxCell id="xV2-DqPg_27y4KBebF6c-26" value="JSON Parser" style="rounded=1;whiteSpace=wrap;html=1;fillColor=#d5e8d4;strokeColor=#82b366;shadow=1;" vertex="1" parent="1">
          <mxGeometry x="215" y="470.25" width="120" height="60" as="geometry" />
        </mxCell>
        <mxCell id="xV2-DqPg_27y4KBebF6c-27" value="Profile" style="rounded=1;whiteSpace=wrap;html=1;fillColor=#d5e8d4;strokeColor=#82b366;shadow=1;" vertex="1" parent="1">
          <mxGeometry x="400" y="470.25" width="120" height="60" as="geometry" />
        </mxCell>
        <mxCell id="xV2-DqPg_27y4KBebF6c-28" value="" style="endArrow=none;dashed=1;html=1;strokeColor=#000000;exitX=0.5;exitY=0;exitDx=0;exitDy=0;entryX=0.5;entryY=1;entryDx=0;entryDy=0;edgeStyle=orthogonalEdgeStyle;" edge="1" source="xV2-DqPg_27y4KBebF6c-25" target="xV2-DqPg_27y4KBebF6c-23" parent="1">
          <mxGeometry width="50" height="50" relative="1" as="geometry">
            <mxPoint x="390" y="421.5" as="sourcePoint" />
            <mxPoint x="440" y="371.5" as="targetPoint" />
          </mxGeometry>
        </mxCell>
        <mxCell id="xV2-DqPg_27y4KBebF6c-29" style="edgeStyle=orthogonalEdgeStyle;rounded=0;orthogonalLoop=1;jettySize=auto;html=1;exitX=0.5;exitY=1;exitDx=0;exitDy=0;strokeColor=#000000;" edge="1" source="xV2-DqPg_27y4KBebF6c-27" target="xV2-DqPg_27y4KBebF6c-27" parent="1">
          <mxGeometry relative="1" as="geometry" />
        </mxCell>
        <mxCell id="xV2-DqPg_27y4KBebF6c-30" value="&lt;h2&gt;&lt;font color=&quot;#ffffff&quot;&gt;4&lt;/font&gt;&lt;/h2&gt;" style="ellipse;whiteSpace=wrap;html=1;aspect=fixed;strokeColor=#82b366;fillColor=#C1E0BC;" vertex="1" parent="1">
          <mxGeometry x="145" y="271.5" width="30" height="30" as="geometry" />
        </mxCell>
        <mxCell id="xV2-DqPg_27y4KBebF6c-31" value="&lt;h2&gt;&lt;font color=&quot;#ffffff&quot;&gt;5&lt;/font&gt;&lt;/h2&gt;" style="ellipse;whiteSpace=wrap;html=1;aspect=fixed;strokeColor=#82b366;fillColor=#C1E0BC;" vertex="1" parent="1">
          <mxGeometry x="400" y="371.5" width="30" height="30" as="geometry" />
        </mxCell>
        <mxCell id="xV2-DqPg_27y4KBebF6c-32" value="" style="shape=cross;whiteSpace=wrap;html=1;rounded=0;fillColor=#f5f5f5;strokeColor=#666666;fontColor=#333333;" vertex="1" parent="1">
          <mxGeometry x="355" y="485.88" width="30" height="28.75" as="geometry" />
        </mxCell>
        <mxCell id="lcojOaO51Gwr2MNU7D6K-2" value="REST API &lt;br&gt;(PHI)" style="rounded=1;whiteSpace=wrap;html=1;fillColor=#e1d5e7;shadow=1;strokeColor=#9673a6;" parent="1" vertex="1">
          <mxGeometry x="815" y="171.5" width="90" height="390" as="geometry" />
        </mxCell>
        <mxCell id="lcojOaO51Gwr2MNU7D6K-4" style="edgeStyle=orthogonalEdgeStyle;rounded=0;orthogonalLoop=1;jettySize=auto;html=1;exitX=1;exitY=0.5;exitDx=0;exitDy=0;entryX=0;entryY=0.5;entryDx=0;entryDy=0;startArrow=none;startFill=0;endArrow=block;endFill=1;strokeColor=#5C5C5C;" parent="1" target="lcojOaO51Gwr2MNU7D6K-7" edge="1">
          <mxGeometry relative="1" as="geometry">
            <mxPoint x="520" y="311.5" as="sourcePoint" />
          </mxGeometry>
        </mxCell>
        <mxCell id="lcojOaO51Gwr2MNU7D6K-7" value="FHIR Outbound" style="rounded=1;whiteSpace=wrap;html=1;fillColor=#d5e8d4;strokeColor=#82b366;shadow=1;" parent="1" vertex="1">
          <mxGeometry x="585" y="281.5" width="120" height="60" as="geometry" />
        </mxCell>
        <mxCell id="lcojOaO51Gwr2MNU7D6K-8" value="&lt;h2&gt;&lt;font color=&quot;#ffffff&quot;&gt;8&lt;/font&gt;&lt;/h2&gt;" style="ellipse;whiteSpace=wrap;html=1;aspect=fixed;strokeColor=#82b366;fillColor=#C1E0BC;" parent="1" vertex="1">
          <mxGeometry x="753" y="269.5" width="30" height="30" as="geometry" />
        </mxCell>
        <mxCell id="lcojOaO51Gwr2MNU7D6K-9" value="&lt;h2&gt;&lt;font color=&quot;#ffffff&quot;&gt;7&lt;/font&gt;&lt;/h2&gt;" style="ellipse;whiteSpace=wrap;html=1;aspect=fixed;strokeColor=#82b366;fillColor=#C1E0BC;" parent="1" vertex="1">
          <mxGeometry x="630" y="351.5" width="30" height="30" as="geometry" />
        </mxCell>
        <mxCell id="lcojOaO51Gwr2MNU7D6K-10" value="&lt;span style=&quot;background-color: rgb(255 , 244 , 195)&quot;&gt;REST&lt;/span&gt;" style="edgeStyle=orthogonalEdgeStyle;rounded=0;orthogonalLoop=1;jettySize=auto;html=1;startArrow=block;startFill=1;endArrow=block;endFill=1;strokeColor=#5C5C5C;entryX=-0.011;entryY=0.359;entryDx=0;entryDy=0;exitX=1;exitY=0.5;exitDx=0;exitDy=0;entryPerimeter=0;strokeWidth=2;" parent="1" source="lcojOaO51Gwr2MNU7D6K-7" target="lcojOaO51Gwr2MNU7D6K-2" edge="1">
          <mxGeometry relative="1" as="geometry">
            <mxPoint x="375" y="366.5" as="targetPoint" />
            <mxPoint x="294" y="311.5" as="sourcePoint" />
          </mxGeometry>
        </mxCell>
        <mxCell id="lcojOaO51Gwr2MNU7D6K-11" value="&lt;h2&gt;&lt;font color=&quot;#ffffff&quot;&gt;6&lt;/font&gt;&lt;/h2&gt;" style="ellipse;whiteSpace=wrap;html=1;aspect=fixed;strokeColor=#82b366;fillColor=#C1E0BC;" parent="1" vertex="1">
          <mxGeometry x="536" y="274.5" width="30" height="30" as="geometry" />
        </mxCell>
        <mxCell id="xV2-DqPg_27y4KBebF6c-41" value="&lt;b&gt;&lt;font style=&quot;font-size: 14px&quot; face=&quot;Comic Sans MS&quot;&gt;STAGE 1&lt;/font&gt;&lt;/b&gt;" style="ellipse;whiteSpace=wrap;html=1;rounded=1;shadow=1;glass=0;sketch=1;strokeColor=#666666;fontColor=#333333;fillColor=none;" vertex="1" parent="1">
          <mxGeometry x="-68.63000000000001" y="110" width="77.25" height="51.5" as="geometry" />
        </mxCell>
        <mxCell id="xV2-DqPg_27y4KBebF6c-42" value="&lt;b&gt;&lt;font style=&quot;font-size: 14px&quot; face=&quot;Comic Sans MS&quot;&gt;STAGE 2&lt;/font&gt;&lt;/b&gt;" style="ellipse;whiteSpace=wrap;html=1;rounded=1;shadow=1;glass=0;sketch=1;strokeColor=#666666;fontColor=#333333;fillColor=none;" vertex="1" parent="1">
          <mxGeometry x="300" y="110" width="77.25" height="51.5" as="geometry" />
        </mxCell>
        <mxCell id="xV2-DqPg_27y4KBebF6c-43" value="&lt;b&gt;&lt;font style=&quot;font-size: 14px&quot; face=&quot;Comic Sans MS&quot;&gt;STAGE 3&lt;/font&gt;&lt;/b&gt;" style="ellipse;whiteSpace=wrap;html=1;rounded=1;shadow=1;glass=0;sketch=1;strokeColor=#666666;fontColor=#333333;fillColor=none;" vertex="1" parent="1">
          <mxGeometry x="705" y="110" width="77.25" height="51.5" as="geometry" />
        </mxCell>
      </root>
    </mxGraphModel>
  </diagram>
</mxfile>
